<?xml version="1.0" encoding="UTF-8" standalone="no"?>
<!DOCTYPE svg PUBLIC "-//W3C//DTD SVG 1.1//EN"
 "http://www.w3.org/Graphics/SVG/1.1/DTD/svg11.dtd">
<!-- Generated by graphviz version 2.38.0 (20140413.2041)
 -->
<!-- Title: %3 Pages: 1 -->
<svg width="1117pt" height="653pt"
 viewBox="0.00 0.00 1117.00 653.00" xmlns="http://www.w3.org/2000/svg" xmlns:xlink="http://www.w3.org/1999/xlink">
<g id="graph0" class="graph" transform="scale(1 1) rotate(0) translate(4 649)">
<title>%3</title>
<polygon fill="white" stroke="none" points="-4,4 -4,-649 1113,-649 1113,4 -4,4"/>
<!-- 1 -->
<g id="node1" class="node"><title>1</title>
<ellipse fill="none" stroke="black" cx="672" cy="-18" rx="27" ry="18"/>
<text text-anchor="middle" x="672" y="-14.3" font-family="Times New Roman,serif" font-size="14.00">1</text>
</g>
<!-- 2 -->
<g id="node2" class="node"><title>2</title>
<ellipse fill="none" stroke="black" cx="602" cy="-105" rx="27" ry="18"/>
<text text-anchor="middle" x="602" y="-101.3" font-family="Times New Roman,serif" font-size="14.00">2</text>
</g>
<!-- 1&#45;&gt;2 -->
<g id="edge1" class="edge"><title>1&#45;&gt;2</title>
<path fill="none" stroke="black" d="M659.485,-34.1963C648.735,-47.2505 633.076,-66.2646 620.815,-81.1527"/>
<polygon fill="black" stroke="black" points="618.062,-78.991 614.406,-88.9353 623.465,-83.4409 618.062,-78.991"/>
<text text-anchor="middle" x="650" y="-57.8" font-family="Times New Roman,serif" font-size="14.00">16</text>
</g>
<!-- 3 -->
<g id="node3" class="node"><title>3</title>
<ellipse fill="none" stroke="black" cx="557" cy="-627" rx="27" ry="18"/>
<text text-anchor="middle" x="557" y="-623.3" font-family="Times New Roman,serif" font-size="14.00">3</text>
</g>
<!-- 1&#45;&gt;3 -->
<g id="edge2" class="edge"><title>1&#45;&gt;3</title>
<path fill="none" stroke="black" d="M689.797,-31.7293C765.515,-90.1401 1057,-315 1057,-315 1057,-315 691.518,-543.061 585.502,-609.215"/>
<polygon fill="black" stroke="black" points="583.54,-606.313 576.909,-614.577 587.246,-612.252 583.54,-606.313"/>
<text text-anchor="middle" x="1064" y="-318.8" font-family="Times New Roman,serif" font-size="14.00">27</text>
</g>
<!-- 4 -->
<g id="node4" class="node"><title>4</title>
<ellipse fill="none" stroke="black" cx="489" cy="-540" rx="27" ry="18"/>
<text text-anchor="middle" x="489" y="-536.3" font-family="Times New Roman,serif" font-size="14.00">4</text>
</g>
<!-- 1&#45;&gt;4 -->
<g id="edge3" class="edge"><title>1&#45;&gt;4</title>
<path fill="none" stroke="black" d="M690.441,-31.6293C761.686,-84.2838 1015,-271.5 1015,-271.5 1015,-271.5 632.218,-466.893 519.731,-524.313"/>
<polygon fill="black" stroke="black" points="517.916,-521.31 510.6,-528.974 521.098,-527.545 517.916,-521.31"/>
<text text-anchor="middle" x="1022" y="-275.3" font-family="Times New Roman,serif" font-size="14.00">89</text>
</g>
<!-- 5 -->
<g id="node5" class="node"><title>5</title>
<ellipse fill="none" stroke="black" cx="576" cy="-453" rx="27" ry="18"/>
<text text-anchor="middle" x="576" y="-449.3" font-family="Times New Roman,serif" font-size="14.00">5</text>
</g>
<!-- 1&#45;&gt;5 -->
<g id="edge4" class="edge"><title>1&#45;&gt;5</title>
<path fill="none" stroke="black" d="M683.613,-34.4783C718.503,-83.9839 820,-228 820,-228 820,-228 660.9,-374.711 599.645,-431.196"/>
<polygon fill="black" stroke="black" points="596.988,-428.885 592.01,-438.237 601.734,-434.031 596.988,-428.885"/>
<text text-anchor="middle" x="827" y="-231.8" font-family="Times New Roman,serif" font-size="14.00">34</text>
</g>
<!-- 6 -->
<g id="node6" class="node"><title>6</title>
<ellipse fill="none" stroke="black" cx="602" cy="-366" rx="27" ry="18"/>
<text text-anchor="middle" x="602" y="-362.3" font-family="Times New Roman,serif" font-size="14.00">6</text>
</g>
<!-- 1&#45;&gt;6 -->
<g id="edge5" class="edge"><title>1&#45;&gt;6</title>
<path fill="none" stroke="black" d="M673.198,-36.1354C676.049,-79.2885 683,-184.5 683,-184.5 683,-184.5 636.453,-288.799 613.93,-339.268"/>
<polygon fill="black" stroke="black" points="610.646,-338.039 609.767,-348.597 617.038,-340.892 610.646,-338.039"/>
<text text-anchor="middle" x="690" y="-188.3" font-family="Times New Roman,serif" font-size="14.00">65</text>
</g>
<!-- 7 -->
<g id="node7" class="node"><title>7</title>
<ellipse fill="none" stroke="black" cx="332" cy="-279" rx="27" ry="18"/>
<text text-anchor="middle" x="332" y="-275.3" font-family="Times New Roman,serif" font-size="14.00">7</text>
</g>
<!-- 1&#45;&gt;7 -->
<g id="edge6" class="edge"><title>1&#45;&gt;7</title>
<path fill="none" stroke="black" d="M646.812,-24.7494C543.416,-52.4556 157,-156 157,-156 157,-156 255.895,-225.509 304.998,-260.021"/>
<polygon fill="black" stroke="black" points="303.078,-262.95 313.272,-265.837 307.103,-257.223 303.078,-262.95"/>
<text text-anchor="middle" x="150" y="-144.8" font-family="Times New Roman,serif" font-size="14.00">12</text>
</g>
<!-- 8 -->
<g id="node8" class="node"><title>8</title>
<ellipse fill="none" stroke="black" cx="337" cy="-192" rx="27" ry="18"/>
<text text-anchor="middle" x="337" y="-188.3" font-family="Times New Roman,serif" font-size="14.00">8</text>
</g>
<!-- 1&#45;&gt;8 -->
<g id="edge7" class="edge"><title>1&#45;&gt;8</title>
<path fill="none" stroke="magenta" stroke-width="4" d="M646.517,-24.1276C559.43,-45.0683 279,-112.5 279,-112.5 279,-112.5 301.998,-144.023 319.031,-167.37"/>
<polygon fill="magenta" stroke="magenta" stroke-width="4" points="316.261,-169.512 324.982,-175.528 321.916,-165.386 316.261,-169.512"/>
<text text-anchor="middle" x="272" y="-101.3" font-family="Times New Roman,serif" font-size="14.00">10</text>
</g>
<!-- 2&#45;&gt;1 -->
<g id="edge8" class="edge"><title>2&#45;&gt;1</title>
<path fill="none" stroke="black" d="M614.406,-88.9353C625.124,-75.9213 640.777,-56.9134 653.061,-41.9977"/>
<polygon fill="black" stroke="black" points="655.83,-44.1406 659.485,-34.1963 650.427,-39.6906 655.83,-44.1406"/>
<text text-anchor="middle" x="620" y="-57.8" font-family="Times New Roman,serif" font-size="14.00">16</text>
</g>
<!-- 2&#45;&gt;3 -->
<g id="edge9" class="edge"><title>2&#45;&gt;3</title>
<path fill="none" stroke="black" d="M620.908,-117.92C696.511,-169.578 973,-358.5 973,-358.5 973,-358.5 678.679,-548.464 585.163,-608.823"/>
<polygon fill="black" stroke="black" points="583.01,-606.046 576.507,-614.41 586.807,-611.928 583.01,-606.046"/>
<text text-anchor="middle" x="980" y="-362.3" font-family="Times New Roman,serif" font-size="14.00">56</text>
</g>
<!-- 2&#45;&gt;4 -->
<g id="edge10" class="edge"><title>2&#45;&gt;4</title>
<path fill="none" stroke="black" d="M621.476,-117.508C691.873,-162.717 929,-315 929,-315 929,-315 619.17,-473.436 519.493,-524.407"/>
<polygon fill="black" stroke="black" points="517.83,-521.326 510.52,-528.995 521.017,-527.559 517.83,-521.326"/>
<text text-anchor="middle" x="936" y="-318.8" font-family="Times New Roman,serif" font-size="14.00">78</text>
</g>
<!-- 2&#45;&gt;5 -->
<g id="edge11" class="edge"><title>2&#45;&gt;5</title>
<path fill="none" stroke="magenta" stroke-width="4" d="M617.658,-120.069C660.243,-161.055 775,-271.5 775,-271.5 775,-271.5 652.111,-383.582 599.474,-431.591"/>
<polygon fill="magenta" stroke="magenta" stroke-width="4" points="596.979,-429.129 591.949,-438.454 601.696,-434.301 596.979,-429.129"/>
<text text-anchor="middle" x="782" y="-275.3" font-family="Times New Roman,serif" font-size="14.00">32</text>
</g>
<!-- 2&#45;&gt;6 -->
<g id="edge12" class="edge"><title>2&#45;&gt;6</title>
<path fill="none" stroke="black" d="M598.732,-123.041C591.955,-160.448 577,-243 577,-243 577,-243 588.954,-301.816 596.33,-338.105"/>
<polygon fill="black" stroke="black" points="592.943,-339.012 598.365,-348.115 599.803,-337.618 592.943,-339.012"/>
<text text-anchor="middle" x="570" y="-231.8" font-family="Times New Roman,serif" font-size="14.00">16</text>
</g>
<!-- 2&#45;&gt;7 -->
<g id="edge13" class="edge"><title>2&#45;&gt;7</title>
<path fill="none" stroke="black" d="M583.34,-118.128C551.245,-140.708 489,-184.5 489,-184.5 489,-184.5 406.383,-234.228 361.011,-261.538"/>
<polygon fill="black" stroke="black" points="358.966,-258.684 352.204,-266.839 362.576,-264.681 358.966,-258.684"/>
<text text-anchor="middle" x="496" y="-188.3" font-family="Times New Roman,serif" font-size="14.00">64</text>
</g>
<!-- 2&#45;&gt;8 -->
<g id="edge14" class="edge"><title>2&#45;&gt;8</title>
<path fill="none" stroke="black" d="M578.016,-113.693C530.617,-128.896 424.853,-162.821 370.565,-180.234"/>
<polygon fill="black" stroke="black" points="369.192,-176.998 360.739,-183.386 371.33,-183.664 369.192,-176.998"/>
<text text-anchor="middle" x="418" y="-144.8" font-family="Times New Roman,serif" font-size="14.00">32</text>
</g>
<!-- 3&#45;&gt;1 -->
<g id="edge15" class="edge"><title>3&#45;&gt;1</title>
<path fill="none" stroke="black" d="M577.433,-615.15C675.705,-558.16 1095,-315 1095,-315 1095,-315 792.421,-102.551 699.084,-37.0163"/>
<polygon fill="black" stroke="black" points="700.917,-34.0268 690.722,-31.1449 696.895,-39.7557 700.917,-34.0268"/>
<text text-anchor="middle" x="1102" y="-318.8" font-family="Times New Roman,serif" font-size="14.00">27</text>
</g>
<!-- 3&#45;&gt;2 -->
<g id="edge16" class="edge"><title>3&#45;&gt;2</title>
<path fill="none" stroke="black" d="M534.701,-616.59C432.523,-568.888 14,-373.5 14,-373.5 14,-373.5 448.415,-175.132 570.455,-119.405"/>
<polygon fill="black" stroke="black" points="572.025,-122.535 579.668,-115.198 569.117,-116.168 572.025,-122.535"/>
<text text-anchor="middle" x="7" y="-362.3" font-family="Times New Roman,serif" font-size="14.00">56</text>
</g>
<!-- 3&#45;&gt;4 -->
<g id="edge17" class="edge"><title>3&#45;&gt;4</title>
<path fill="none" stroke="black" d="M544.719,-610.649C534.399,-597.749 519.488,-579.11 507.687,-564.359"/>
<polygon fill="black" stroke="black" points="510.137,-561.819 501.157,-556.196 504.671,-566.191 510.137,-561.819"/>
<text text-anchor="middle" x="534" y="-579.8" font-family="Times New Roman,serif" font-size="14.00">82</text>
</g>
<!-- 3&#45;&gt;5 -->
<g id="edge18" class="edge"><title>3&#45;&gt;5</title>
<path fill="none" stroke="black" d="M560.278,-608.779C565.218,-581.319 574,-532.5 574,-532.5 574,-532.5 574.713,-504.177 575.287,-481.342"/>
<polygon fill="black" stroke="black" points="578.793,-481.125 575.546,-471.04 571.796,-480.949 578.793,-481.125"/>
<text text-anchor="middle" x="581" y="-536.3" font-family="Times New Roman,serif" font-size="14.00">57</text>
</g>
<!-- 3&#45;&gt;6 -->
<g id="edge19" class="edge"><title>3&#45;&gt;6</title>
<path fill="none" stroke="magenta" stroke-width="4" d="M573.295,-612.492C613.09,-577.061 712,-489 712,-489 712,-489 654.55,-424.76 622.686,-389.131"/>
<polygon fill="magenta" stroke="magenta" stroke-width="4" points="625.207,-386.699 615.932,-381.578 619.989,-391.365 625.207,-386.699"/>
<text text-anchor="middle" x="719" y="-492.8" font-family="Times New Roman,serif" font-size="14.00">35</text>
</g>
<!-- 3&#45;&gt;7 -->
<g id="edge20" class="edge"><title>3&#45;&gt;7</title>
<path fill="none" stroke="black" d="M536.504,-615.026C471.156,-576.849 272,-460.5 272,-460.5 272,-460.5 306.17,-357.136 322.937,-306.416"/>
<polygon fill="black" stroke="black" points="326.322,-307.327 326.138,-296.733 319.676,-305.13 326.322,-307.327"/>
<text text-anchor="middle" x="265" y="-449.3" font-family="Times New Roman,serif" font-size="14.00">80</text>
</g>
<!-- 3&#45;&gt;8 -->
<g id="edge21" class="edge"><title>3&#45;&gt;8</title>
<path fill="none" stroke="black" d="M533.841,-617.292C435.309,-575.992 56,-417 56,-417 56,-417 242.439,-267.716 311.591,-212.345"/>
<polygon fill="black" stroke="black" points="313.804,-215.057 319.422,-206.075 309.429,-209.593 313.804,-215.057"/>
<text text-anchor="middle" x="49" y="-405.8" font-family="Times New Roman,serif" font-size="14.00">25</text>
</g>
<!-- 4&#45;&gt;1 -->
<g id="edge22" class="edge"><title>4&#45;&gt;1</title>
<path fill="none" stroke="black" d="M467.667,-528.615C375.241,-479.288 14,-286.5 14,-286.5 14,-286.5 506.51,-85.529 639.334,-31.3297"/>
<polygon fill="black" stroke="black" points="641.031,-34.4174 648.967,-27.3986 638.386,-27.9362 641.031,-34.4174"/>
<text text-anchor="middle" x="7" y="-275.3" font-family="Times New Roman,serif" font-size="14.00">89</text>
</g>
<!-- 4&#45;&gt;2 -->
<g id="edge23" class="edge"><title>4&#45;&gt;2</title>
<path fill="none" stroke="black" d="M509.715,-528.377C591.829,-482.303 890,-315 890,-315 890,-315 699.796,-176.31 628.534,-124.348"/>
<polygon fill="black" stroke="black" points="630.596,-121.52 620.454,-118.456 626.472,-127.176 630.596,-121.52"/>
<text text-anchor="middle" x="897" y="-318.8" font-family="Times New Roman,serif" font-size="14.00">78</text>
</g>
<!-- 4&#45;&gt;3 -->
<g id="edge24" class="edge"><title>4&#45;&gt;3</title>
<path fill="none" stroke="black" d="M501.157,-556.196C511.44,-569.05 526.345,-587.681 538.17,-602.463"/>
<polygon fill="black" stroke="black" points="535.739,-605.026 544.719,-610.649 541.205,-600.654 535.739,-605.026"/>
<text text-anchor="middle" x="507" y="-579.8" font-family="Times New Roman,serif" font-size="14.00">82</text>
</g>
<!-- 4&#45;&gt;5 -->
<g id="edge25" class="edge"><title>4&#45;&gt;5</title>
<path fill="none" stroke="black" d="M503.54,-524.794C517.298,-511.353 538.137,-490.993 553.941,-475.552"/>
<polygon fill="black" stroke="black" points="556.535,-477.911 561.242,-468.419 551.643,-472.904 556.535,-477.911"/>
<text text-anchor="middle" x="515" y="-492.8" font-family="Times New Roman,serif" font-size="14.00">34</text>
</g>
<!-- 4&#45;&gt;6 -->
<g id="edge26" class="edge"><title>4&#45;&gt;6</title>
<path fill="none" stroke="black" d="M478.018,-523.528C462.494,-500.242 436,-460.5 436,-460.5 436,-460.5 524.605,-410.059 572.346,-382.881"/>
<polygon fill="black" stroke="black" points="574.353,-385.766 581.312,-377.777 570.89,-379.683 574.353,-385.766"/>
<text text-anchor="middle" x="429" y="-449.3" font-family="Times New Roman,serif" font-size="14.00">51</text>
</g>
<!-- 4&#45;&gt;7 -->
<g id="edge27" class="edge"><title>4&#45;&gt;7</title>
<path fill="none" stroke="magenta" stroke-width="4" d="M472.55,-525.65C435.355,-493.204 348,-417 348,-417 348,-417 339.935,-347.436 335.257,-307.087"/>
<polygon fill="magenta" stroke="magenta" stroke-width="4" points="338.72,-306.571 334.092,-297.041 331.767,-307.378 338.72,-306.571"/>
<text text-anchor="middle" x="341" y="-405.8" font-family="Times New Roman,serif" font-size="14.00">19</text>
</g>
<!-- 4&#45;&gt;8 -->
<g id="edge28" class="edge"><title>4&#45;&gt;8</title>
<path fill="none" stroke="black" d="M467.624,-528.556C397.36,-490.939 178,-373.5 178,-373.5 178,-373.5 273.55,-264.429 316.508,-215.392"/>
<polygon fill="black" stroke="black" points="319.211,-217.618 323.168,-207.789 313.946,-213.005 319.211,-217.618"/>
<text text-anchor="middle" x="171" y="-362.3" font-family="Times New Roman,serif" font-size="14.00">47</text>
</g>
<!-- 5&#45;&gt;1 -->
<g id="edge29" class="edge"><title>5&#45;&gt;1</title>
<path fill="none" stroke="black" d="M593.703,-438.925C655.659,-389.667 859,-228 859,-228 859,-228 741.396,-95.9318 692.716,-41.2634"/>
<polygon fill="black" stroke="black" points="695.32,-38.9248 686.055,-33.7841 690.092,-43.58 695.32,-38.9248"/>
<text text-anchor="middle" x="866" y="-231.8" font-family="Times New Roman,serif" font-size="14.00">34</text>
</g>
<!-- 5&#45;&gt;2 -->
<g id="edge30" class="edge"><title>5&#45;&gt;2</title>
<path fill="none" stroke="black" d="M589.223,-436.893C625.689,-392.473 725,-271.5 725,-271.5 725,-271.5 654.366,-175.885 620.151,-129.57"/>
<polygon fill="black" stroke="black" points="622.775,-127.231 614.018,-121.268 617.144,-131.391 622.775,-127.231"/>
<text text-anchor="middle" x="732" y="-275.3" font-family="Times New Roman,serif" font-size="14.00">32</text>
</g>
<!-- 5&#45;&gt;3 -->
<g id="edge31" class="edge"><title>5&#45;&gt;3</title>
<path fill="none" stroke="black" d="M592.805,-467.213C619.843,-490.08 670,-532.5 670,-532.5 670,-532.5 615.417,-578.147 582.122,-605.991"/>
<polygon fill="black" stroke="black" points="579.588,-603.547 574.162,-612.647 584.079,-608.917 579.588,-603.547"/>
<text text-anchor="middle" x="677" y="-536.3" font-family="Times New Roman,serif" font-size="14.00">57</text>
</g>
<!-- 5&#45;&gt;4 -->
<g id="edge32" class="edge"><title>5&#45;&gt;4</title>
<path fill="none" stroke="magenta" stroke-width="4" d="M561.242,-468.419C547.41,-481.933 526.561,-502.303 510.81,-517.692"/>
<polygon fill="magenta" stroke="magenta" stroke-width="4" points="508.247,-515.302 503.54,-524.794 513.139,-520.309 508.247,-515.302"/>
<text text-anchor="middle" x="544" y="-492.8" font-family="Times New Roman,serif" font-size="14.00">34</text>
</g>
<!-- 5&#45;&gt;6 -->
<g id="edge33" class="edge"><title>5&#45;&gt;6</title>
<path fill="none" stroke="black" d="M581.126,-435.242C584.756,-423.375 589.699,-407.213 593.865,-393.597"/>
<polygon fill="black" stroke="black" points="597.285,-394.38 596.863,-383.793 590.591,-392.332 597.285,-394.38"/>
<text text-anchor="middle" x="603" y="-405.8" font-family="Times New Roman,serif" font-size="14.00">42</text>
</g>
<!-- 5&#45;&gt;7 -->
<g id="edge34" class="edge"><title>5&#45;&gt;7</title>
<path fill="none" stroke="black" d="M555.082,-441.61C514.711,-419.627 430,-373.5 430,-373.5 430,-373.5 384.031,-329.172 355.06,-301.236"/>
<polygon fill="black" stroke="black" points="357.373,-298.605 347.745,-294.183 352.514,-303.644 357.373,-298.605"/>
<text text-anchor="middle" x="423" y="-362.3" font-family="Times New Roman,serif" font-size="14.00">59</text>
</g>
<!-- 5&#45;&gt;8 -->
<g id="edge35" class="edge"><title>5&#45;&gt;8</title>
<path fill="none" stroke="black" d="M569.541,-435.522C555.817,-398.388 525,-315 525,-315 525,-315 417.27,-244.517 364.911,-210.261"/>
<polygon fill="black" stroke="black" points="366.696,-207.246 356.411,-204.7 362.863,-213.104 366.696,-207.246"/>
<text text-anchor="middle" x="532" y="-318.8" font-family="Times New Roman,serif" font-size="14.00">41</text>
</g>
<!-- 6&#45;&gt;1 -->
<g id="edge36" class="edge"><title>6&#45;&gt;1</title>
<path fill="none" stroke="black" d="M613.856,-349.573C646.103,-304.895 733,-184.5 733,-184.5 733,-184.5 699.214,-92.2816 681.931,-45.1064"/>
<polygon fill="black" stroke="black" points="685.139,-43.6894 678.413,-35.5037 678.567,-46.0974 685.139,-43.6894"/>
<text text-anchor="middle" x="740" y="-188.3" font-family="Times New Roman,serif" font-size="14.00">65</text>
</g>
<!-- 6&#45;&gt;2 -->
<g id="edge37" class="edge"><title>6&#45;&gt;2</title>
<path fill="none" stroke="magenta" stroke-width="4" d="M602,-347.959C602,-310.552 602,-228 602,-228 602,-228 602,-169.486 602,-133.175"/>
<polygon fill="magenta" stroke="magenta" stroke-width="4" points="605.5,-133.149 602,-123.149 598.5,-133.149 605.5,-133.149"/>
<text text-anchor="middle" x="609" y="-231.8" font-family="Times New Roman,serif" font-size="14.00">16</text>
</g>
<!-- 6&#45;&gt;3 -->
<g id="edge38" class="edge"><title>6&#45;&gt;3</title>
<path fill="none" stroke="black" d="M618.977,-380.11C657.852,-412.418 750,-489 750,-489 750,-489 636.77,-569.962 583.768,-607.86"/>
<polygon fill="black" stroke="black" points="581.604,-605.104 575.506,-613.768 585.676,-610.799 581.604,-605.104"/>
<text text-anchor="middle" x="757" y="-492.8" font-family="Times New Roman,serif" font-size="14.00">35</text>
</g>
<!-- 6&#45;&gt;4 -->
<g id="edge39" class="edge"><title>6&#45;&gt;4</title>
<path fill="none" stroke="black" d="M584.884,-379.944C552.616,-406.231 486,-460.5 486,-460.5 486,-460.5 487.069,-488.823 487.93,-511.658"/>
<polygon fill="black" stroke="black" points="484.445,-512.099 488.319,-521.96 491.44,-511.835 484.445,-512.099"/>
<text text-anchor="middle" x="479" y="-449.3" font-family="Times New Roman,serif" font-size="14.00">51</text>
</g>
<!-- 6&#45;&gt;5 -->
<g id="edge40" class="edge"><title>6&#45;&gt;5</title>
<path fill="none" stroke="black" d="M596.863,-383.793C593.231,-395.668 588.287,-411.832 584.123,-425.443"/>
<polygon fill="black" stroke="black" points="580.704,-424.655 581.126,-435.242 587.398,-426.703 580.704,-424.655"/>
<text text-anchor="middle" x="583" y="-405.8" font-family="Times New Roman,serif" font-size="14.00">42</text>
</g>
<!-- 6&#45;&gt;7 -->
<g id="edge41" class="edge"><title>6&#45;&gt;7</title>
<path fill="none" stroke="black" d="M578.093,-357.474C529.903,-342.303 420.991,-308.016 365.645,-290.592"/>
<polygon fill="black" stroke="black" points="366.55,-287.208 355.961,-287.543 364.448,-293.885 366.55,-287.208"/>
<text text-anchor="middle" x="496" y="-318.8" font-family="Times New Roman,serif" font-size="14.00">76</text>
</g>
<!-- 6&#45;&gt;8 -->
<g id="edge42" class="edge"><title>6&#45;&gt;8</title>
<path fill="none" stroke="black" d="M588.599,-349.969C566.06,-323.008 523,-271.5 523,-271.5 523,-271.5 422.389,-228.497 369.16,-205.746"/>
<polygon fill="black" stroke="black" points="370.378,-202.46 359.807,-201.748 367.627,-208.897 370.378,-202.46"/>
<text text-anchor="middle" x="530" y="-275.3" font-family="Times New Roman,serif" font-size="14.00">82</text>
</g>
<!-- 7&#45;&gt;1 -->
<g id="edge43" class="edge"><title>7&#45;&gt;1</title>
<path fill="none" stroke="magenta" stroke-width="4" d="M315.746,-264.407C279.456,-231.826 195,-156 195,-156 195,-156 527.108,-59.9185 637.094,-28.0985"/>
<polygon fill="magenta" stroke="magenta" stroke-width="4" points="638.393,-31.3665 647.026,-25.2252 636.447,-24.6422 638.393,-31.3665"/>
<text text-anchor="middle" x="188" y="-144.8" font-family="Times New Roman,serif" font-size="14.00">12</text>
</g>
<!-- 7&#45;&gt;2 -->
<g id="edge44" class="edge"><title>7&#45;&gt;2</title>
<path fill="none" stroke="black" d="M351.441,-266.227C385.645,-243.754 453,-199.5 453,-199.5 453,-199.5 530.296,-150.477 573.542,-123.049"/>
<polygon fill="black" stroke="black" points="575.644,-125.861 582.214,-117.549 571.895,-119.949 575.644,-125.861"/>
<text text-anchor="middle" x="446" y="-188.3" font-family="Times New Roman,serif" font-size="14.00">64</text>
</g>
<!-- 7&#45;&gt;3 -->
<g id="edge45" class="edge"><title>7&#45;&gt;3</title>
<path fill="none" stroke="black" d="M321.849,-295.75C294.617,-340.682 222,-460.5 222,-460.5 222,-460.5 443.182,-570.431 526.101,-611.643"/>
<polygon fill="black" stroke="black" points="524.765,-614.887 535.278,-616.204 527.881,-608.619 524.765,-614.887"/>
<text text-anchor="middle" x="215" y="-449.3" font-family="Times New Roman,serif" font-size="14.00">80</text>
</g>
<!-- 7&#45;&gt;4 -->
<g id="edge46" class="edge"><title>7&#45;&gt;4</title>
<path fill="none" stroke="black" d="M338.966,-296.478C353.766,-333.612 387,-417 387,-417 387,-417 439.56,-480.382 469.221,-516.149"/>
<polygon fill="black" stroke="black" points="466.797,-518.708 475.874,-524.172 472.185,-514.24 466.797,-518.708"/>
<text text-anchor="middle" x="380" y="-405.8" font-family="Times New Roman,serif" font-size="14.00">19</text>
</g>
<!-- 7&#45;&gt;5 -->
<g id="edge47" class="edge"><title>7&#45;&gt;5</title>
<path fill="none" stroke="black" d="M352.352,-291.074C389.838,-313.314 466,-358.5 466,-358.5 466,-358.5 519.134,-404.147 551.545,-431.991"/>
<polygon fill="black" stroke="black" points="549.427,-434.786 559.293,-438.647 553.989,-429.476 549.427,-434.786"/>
<text text-anchor="middle" x="473" y="-362.3" font-family="Times New Roman,serif" font-size="14.00">59</text>
</g>
<!-- 7&#45;&gt;6 -->
<g id="edge48" class="edge"><title>7&#45;&gt;6</title>
<path fill="none" stroke="black" d="M355.961,-287.543C404.196,-302.728 513.111,-337.016 568.417,-354.427"/>
<polygon fill="black" stroke="black" points="567.503,-357.809 578.093,-357.474 569.606,-351.132 567.503,-357.809"/>
<text text-anchor="middle" x="455" y="-318.8" font-family="Times New Roman,serif" font-size="14.00">76</text>
</g>
<!-- 7&#45;&gt;8 -->
<g id="edge49" class="edge"><title>7&#45;&gt;8</title>
<path fill="none" stroke="black" d="M333.01,-260.825C333.694,-249.194 334.613,-233.581 335.396,-220.266"/>
<polygon fill="black" stroke="black" points="338.895,-220.389 335.988,-210.201 331.907,-219.978 338.895,-220.389"/>
<text text-anchor="middle" x="342" y="-231.8" font-family="Times New Roman,serif" font-size="14.00">38</text>
</g>
<!-- 8&#45;&gt;1 -->
<g id="edge50" class="edge"><title>8&#45;&gt;1</title>
<path fill="none" stroke="black" d="M335.185,-173.96C332.824,-150.504 329,-112.5 329,-112.5 329,-112.5 549.741,-51.6837 637.056,-27.6273"/>
<polygon fill="black" stroke="black" points="638.067,-30.9793 646.778,-24.9488 636.208,-24.2307 638.067,-30.9793"/>
<text text-anchor="middle" x="322" y="-101.3" font-family="Times New Roman,serif" font-size="14.00">10</text>
</g>
<!-- 8&#45;&gt;2 -->
<g id="edge51" class="edge"><title>8&#45;&gt;2</title>
<path fill="none" stroke="black" d="M360.739,-183.386C408.034,-168.216 514.128,-134.185 568.492,-116.748"/>
<polygon fill="black" stroke="black" points="569.562,-120.08 578.016,-113.693 567.424,-113.415 569.562,-120.08"/>
<text text-anchor="middle" x="379" y="-144.8" font-family="Times New Roman,serif" font-size="14.00">32</text>
</g>
<!-- 8&#45;&gt;3 -->
<g id="edge52" class="edge"><title>8&#45;&gt;3</title>
<path fill="none" stroke="magenta" stroke-width="4" d="M322.91,-207.465C276.594,-258.299 132,-417 132,-417 132,-417 427.977,-563.247 525.936,-611.651"/>
<polygon fill="magenta" stroke="magenta" stroke-width="4" points="524.529,-614.86 535.045,-616.152 527.63,-608.584 524.529,-614.86"/>
<text text-anchor="middle" x="125" y="-405.8" font-family="Times New Roman,serif" font-size="14.00">25</text>
</g>
<!-- 8&#45;&gt;4 -->
<g id="edge53" class="edge"><title>8&#45;&gt;4</title>
<path fill="none" stroke="black" d="M326.941,-208.75C299.957,-253.682 228,-373.5 228,-373.5 228,-373.5 393.49,-479.071 460.917,-522.085"/>
<polygon fill="black" stroke="black" points="459.07,-525.058 469.383,-527.485 462.834,-519.157 459.07,-525.058"/>
<text text-anchor="middle" x="221" y="-362.3" font-family="Times New Roman,serif" font-size="14.00">47</text>
</g>
<!-- 8&#45;&gt;5 -->
<g id="edge54" class="edge"><title>8&#45;&gt;5</title>
<path fill="none" stroke="black" d="M347.977,-208.646C372.18,-245.35 428,-330 428,-330 428,-330 508.989,-397.309 551.145,-432.343"/>
<polygon fill="black" stroke="black" points="549.095,-435.19 559.023,-438.89 553.569,-429.807 549.095,-435.19"/>
<text text-anchor="middle" x="421" y="-318.8" font-family="Times New Roman,serif" font-size="14.00">41</text>
</g>
<!-- 8&#45;&gt;6 -->
<g id="edge55" class="edge"><title>8&#45;&gt;6</title>
<path fill="none" stroke="black" d="M357.361,-203.902C395.3,-226.08 473,-271.5 473,-271.5 473,-271.5 537.479,-318.735 575.265,-346.415"/>
<polygon fill="black" stroke="black" points="573.656,-349.575 583.791,-352.661 577.792,-343.928 573.656,-349.575"/>
<text text-anchor="middle" x="480" y="-275.3" font-family="Times New Roman,serif" font-size="14.00">82</text>
</g>
<!-- 8&#45;&gt;7 -->
<g id="edge56" class="edge"><title>8&#45;&gt;7</title>
<path fill="none" stroke="black" d="M335.988,-210.201C335.304,-221.837 334.385,-237.452 333.602,-250.763"/>
<polygon fill="black" stroke="black" points="330.104,-250.636 333.01,-260.825 337.092,-251.047 330.104,-250.636"/>
<text text-anchor="middle" x="324" y="-231.8" font-family="Times New Roman,serif" font-size="14.00">38</text>
</g>
</g>
</svg>
