<?xml version="1.0" encoding="UTF-8" standalone="no"?>
<!DOCTYPE svg PUBLIC "-//W3C//DTD SVG 1.1//EN"
 "http://www.w3.org/Graphics/SVG/1.1/DTD/svg11.dtd">
<!-- Generated by graphviz version 2.38.0 (20140413.2041)
 -->
<!-- Title: %3 Pages: 1 -->
<svg width="991pt" height="917pt"
 viewBox="0.00 0.00 991.00 917.00" xmlns="http://www.w3.org/2000/svg" xmlns:xlink="http://www.w3.org/1999/xlink">
<g id="graph0" class="graph" transform="scale(1 1) rotate(0) translate(4 913)">
<title>%3</title>
<polygon fill="white" stroke="none" points="-4,4 -4,-913 987,-913 987,4 -4,4"/>
<!-- 1 -->
<g id="node1" class="node"><title>1</title>
<ellipse fill="none" stroke="black" cx="27" cy="-615" rx="27" ry="18"/>
<text text-anchor="middle" x="27" y="-611.3" font-family="Times New Roman,serif" font-size="14.00">1</text>
</g>
<!-- 2 -->
<g id="node2" class="node"><title>2</title>
<ellipse fill="none" stroke="black" cx="124" cy="-391" rx="27" ry="18"/>
<text text-anchor="middle" x="124" y="-387.3" font-family="Times New Roman,serif" font-size="14.00">2</text>
</g>
<!-- 1&#45;&#45;2 -->
<g id="edge1" class="edge"><title>1&#45;&#45;2</title>
<path fill="none" stroke="black" d="M35.2967,-597.795C52.9801,-556.099 97.9695,-450.019 115.678,-408.264"/>
<text text-anchor="middle" x="75.5" y="-512.8" font-family="Times New Roman,serif" font-size="14.00">1</text>
</g>
<!-- 3 -->
<g id="node3" class="node"><title>3</title>
<ellipse fill="none" stroke="black" cx="228" cy="-484" rx="27" ry="18"/>
<text text-anchor="middle" x="228" y="-480.3" font-family="Times New Roman,serif" font-size="14.00">3</text>
</g>
<!-- 1&#45;&#45;3 -->
<g id="edge2" class="edge"><title>1&#45;&#45;3</title>
<path fill="none" stroke="black" d="M54.0441,-615C81.6582,-615 120.5,-615 120.5,-615 120.5,-615 186.441,-534.644 215.033,-499.802"/>
<text text-anchor="middle" x="124" y="-618.8" font-family="Times New Roman,serif" font-size="14.00">2</text>
</g>
<!-- 4 -->
<g id="node4" class="node"><title>4</title>
<ellipse fill="none" stroke="black" cx="332" cy="-346" rx="27" ry="18"/>
<text text-anchor="middle" x="332" y="-342.3" font-family="Times New Roman,serif" font-size="14.00">4</text>
</g>
<!-- 1&#45;&#45;4 -->
<g id="edge3" class="edge"><title>1&#45;&#45;4</title>
<path fill="none" stroke="black" d="M33.8489,-597.53C63.5227,-521.837 179.5,-226 179.5,-226 179.5,-226 274.449,-300.714 314.506,-332.234"/>
<text text-anchor="middle" x="176" y="-214.8" font-family="Times New Roman,serif" font-size="14.00">3</text>
</g>
<!-- 5 -->
<g id="node5" class="node"><title>5</title>
<ellipse fill="none" stroke="black" cx="436" cy="-484" rx="27" ry="18"/>
<text text-anchor="middle" x="436" y="-480.3" font-family="Times New Roman,serif" font-size="14.00">5</text>
</g>
<!-- 1&#45;&#45;5 -->
<g id="edge4" class="edge"><title>1&#45;&#45;5</title>
<path fill="none" stroke="black" d="M50.8231,-623.564C103.352,-642.448 224.5,-686 224.5,-686 224.5,-686 371.605,-545.503 420.448,-498.854"/>
<text text-anchor="middle" x="228" y="-689.8" font-family="Times New Roman,serif" font-size="14.00">4</text>
</g>
<!-- 6 -->
<g id="node6" class="node"><title>6</title>
<ellipse fill="none" stroke="black" cx="540" cy="-671" rx="27" ry="18"/>
<text text-anchor="middle" x="540" y="-667.3" font-family="Times New Roman,serif" font-size="14.00">6</text>
</g>
<!-- 1&#45;&#45;6 -->
<g id="edge5" class="edge"><title>1&#45;&#45;6</title>
<path fill="none" stroke="magenta" stroke-width="4" d="M49.1415,-625.738C110.203,-655.351 276.5,-736 276.5,-736 276.5,-736 447.951,-693.707 514.255,-677.351"/>
<text text-anchor="middle" x="280" y="-739.8" font-family="Times New Roman,serif" font-size="14.00">5</text>
</g>
<!-- 7 -->
<g id="node7" class="node"><title>7</title>
<ellipse fill="none" stroke="black" cx="644" cy="-370" rx="27" ry="18"/>
<text text-anchor="middle" x="644" y="-366.3" font-family="Times New Roman,serif" font-size="14.00">7</text>
</g>
<!-- 1&#45;&#45;7 -->
<g id="edge6" class="edge"><title>1&#45;&#45;7</title>
<path fill="none" stroke="black" d="M37.2643,-598.098C90.7938,-509.952 335.5,-107 335.5,-107 335.5,-107 562.301,-300.35 626.974,-355.485"/>
<text text-anchor="middle" x="332" y="-95.8" font-family="Times New Roman,serif" font-size="14.00">6</text>
</g>
<!-- 8 -->
<g id="node8" class="node"><title>8</title>
<ellipse fill="none" stroke="black" cx="748" cy="-627" rx="27" ry="18"/>
<text text-anchor="middle" x="748" y="-623.3" font-family="Times New Roman,serif" font-size="14.00">8</text>
</g>
<!-- 1&#45;&#45;8 -->
<g id="edge7" class="edge"><title>1&#45;&#45;8</title>
<path fill="none" stroke="magenta" stroke-width="4" d="M47.2754,-626.93C122.39,-671.127 380.5,-823 380.5,-823 380.5,-823 648.22,-680.216 726.653,-638.385"/>
<text text-anchor="middle" x="384" y="-826.8" font-family="Times New Roman,serif" font-size="14.00">7</text>
</g>
<!-- 9 -->
<g id="node9" class="node"><title>9</title>
<ellipse fill="none" stroke="black" cx="852" cy="-468" rx="27" ry="18"/>
<text text-anchor="middle" x="852" y="-464.3" font-family="Times New Roman,serif" font-size="14.00">9</text>
</g>
<!-- 1&#45;&#45;9 -->
<g id="edge8" class="edge"><title>1&#45;&#45;9</title>
<path fill="none" stroke="black" d="M46.0142,-628.083C126.183,-683.242 432.5,-894 432.5,-894 432.5,-894 762.34,-559.049 837.07,-483.162"/>
<text text-anchor="middle" x="436" y="-897.8" font-family="Times New Roman,serif" font-size="14.00">8</text>
</g>
<!-- 10 -->
<g id="node10" class="node"><title>10</title>
<ellipse fill="none" stroke="black" cx="956" cy="-244" rx="27" ry="18"/>
<text text-anchor="middle" x="956" y="-240.3" font-family="Times New Roman,serif" font-size="14.00">10</text>
</g>
<!-- 1&#45;&#45;10 -->
<g id="edge9" class="edge"><title>1&#45;&#45;10</title>
<path fill="none" stroke="black" d="M39.4243,-598.951C113.293,-503.535 491.5,-15 491.5,-15 491.5,-15 842.386,-187.988 934.219,-233.262"/>
<text text-anchor="middle" x="488" y="-3.8" font-family="Times New Roman,serif" font-size="14.00">9</text>
</g>
<!-- 2&#45;&#45;3 -->
<g id="edge10" class="edge"><title>2&#45;&#45;3</title>
<path fill="none" stroke="black" d="M140.938,-405.531C160.1,-423.003 192.062,-452.145 211.174,-469.571"/>
<text text-anchor="middle" x="176" y="-447.8" font-family="Times New Roman,serif" font-size="14.00">11</text>
</g>
<!-- 2&#45;&#45;4 -->
<g id="edge11" class="edge"><title>2&#45;&#45;4</title>
<path fill="none" stroke="black" d="M149.188,-384.419C181.937,-375.863 235,-362 235,-362 235,-362 277.023,-355.068 305.75,-350.33"/>
<text text-anchor="middle" x="228" y="-350.8" font-family="Times New Roman,serif" font-size="14.00">12</text>
</g>
<!-- 2&#45;&#45;5 -->
<g id="edge12" class="edge"><title>2&#45;&#45;5</title>
<path fill="none" stroke="black" d="M150.916,-393.477C197.213,-397.737 287,-406 287,-406 287,-406 373.452,-451.257 414.652,-472.825"/>
<text text-anchor="middle" x="280" y="-394.8" font-family="Times New Roman,serif" font-size="14.00">13</text>
</g>
<!-- 2&#45;&#45;6 -->
<g id="edge13" class="edge"><title>2&#45;&#45;6</title>
<path fill="none" stroke="black" d="M136.573,-407.389C180.577,-464.747 325,-653 325,-653 325,-653 455.57,-663.931 513.205,-668.757"/>
<text text-anchor="middle" x="332" y="-656.8" font-family="Times New Roman,serif" font-size="14.00">14</text>
</g>
<!-- 2&#45;&#45;7 -->
<g id="edge14" class="edge"><title>2&#45;&#45;7</title>
<path fill="none" stroke="magenta" stroke-width="4" d="M141.933,-377.164C201.798,-330.976 391,-185 391,-185 391,-185 567.794,-314.276 625.805,-356.695"/>
<text text-anchor="middle" x="384" y="-173.8" font-family="Times New Roman,serif" font-size="14.00">15</text>
</g>
<!-- 2&#45;&#45;8 -->
<g id="edge15" class="edge"><title>2&#45;&#45;8</title>
<path fill="none" stroke="black" d="M136.717,-407.22C194.441,-480.841 429,-780 429,-780 429,-780 654.003,-672.083 726.074,-637.516"/>
<text text-anchor="middle" x="436" y="-783.8" font-family="Times New Roman,serif" font-size="14.00">16</text>
</g>
<!-- 2&#45;&#45;9 -->
<g id="edge16" class="edge"><title>2&#45;&#45;9</title>
<path fill="none" stroke="black" d="M143.165,-378.24C219.136,-327.662 495,-144 495,-144 495,-144 765.893,-389.853 835.733,-453.236"/>
<text text-anchor="middle" x="488" y="-132.8" font-family="Times New Roman,serif" font-size="14.00">17</text>
</g>
<!-- 2&#45;&#45;10 -->
<g id="edge17" class="edge"><title>2&#45;&#45;10</title>
<path fill="none" stroke="magenta" stroke-width="4" d="M141.637,-377.24C221.693,-314.785 547,-61 547,-61 547,-61 847.685,-195.537 933.428,-233.9"/>
<text text-anchor="middle" x="540" y="-49.8" font-family="Times New Roman,serif" font-size="14.00">18</text>
</g>
<!-- 3&#45;&#45;4 -->
<g id="edge18" class="edge"><title>3&#45;&#45;4</title>
<path fill="none" stroke="black" d="M240.9,-467.9C260.555,-441.308 299.571,-388.522 319.175,-361.998"/>
<text text-anchor="middle" x="280" y="-427.8" font-family="Times New Roman,serif" font-size="14.00">21</text>
</g>
<!-- 3&#45;&#45;5 -->
<g id="edge19" class="edge"><title>3&#45;&#45;5</title>
<path fill="none" stroke="black" d="M255.02,-484C283.721,-484 325,-484 325,-484 325,-484 375.985,-484 408.846,-484"/>
<text text-anchor="middle" x="332" y="-487.8" font-family="Times New Roman,serif" font-size="14.00">22</text>
</g>
<!-- 3&#45;&#45;6 -->
<g id="edge20" class="edge"><title>3&#45;&#45;6</title>
<path fill="none" stroke="black" d="M244.515,-498.409C283.309,-532.256 377,-614 377,-614 377,-614 470.608,-646.734 515.949,-662.589"/>
<text text-anchor="middle" x="384" y="-617.8" font-family="Times New Roman,serif" font-size="14.00">23</text>
</g>
<!-- 3&#45;&#45;7 -->
<g id="edge21" class="edge"><title>3&#45;&#45;7</title>
<path fill="none" stroke="black" d="M250.199,-473.365C305.131,-447.049 443,-381 443,-381 443,-381 562.028,-374.486 616.892,-371.484"/>
<text text-anchor="middle" x="436" y="-369.8" font-family="Times New Roman,serif" font-size="14.00">24</text>
</g>
<!-- 3&#45;&#45;8 -->
<g id="edge22" class="edge"><title>3&#45;&#45;8</title>
<path fill="none" stroke="black" d="M243.445,-499.262C298.375,-553.541 481,-734 481,-734 481,-734 659.813,-662.341 724.773,-636.308"/>
<text text-anchor="middle" x="488" y="-737.8" font-family="Times New Roman,serif" font-size="14.00">25</text>
</g>
<!-- 3&#45;&#45;9 -->
<g id="edge23" class="edge"><title>3&#45;&#45;9</title>
<path fill="none" stroke="magenta" stroke-width="4" d="M250.925,-494.222C321.856,-525.85 533,-620 533,-620 533,-620 757.48,-513.038 829.822,-478.568"/>
<text text-anchor="middle" x="540" y="-623.8" font-family="Times New Roman,serif" font-size="14.00">26</text>
</g>
<!-- 3&#45;&#45;10 -->
<g id="edge24" class="edge"><title>3&#45;&#45;10</title>
<path fill="none" stroke="magenta" stroke-width="4" d="M243.941,-469.434C314.953,-404.547 599,-145 599,-145 599,-145 849.636,-214.504 930.896,-237.039"/>
<text text-anchor="middle" x="592" y="-133.8" font-family="Times New Roman,serif" font-size="14.00">27</text>
</g>
<!-- 4&#45;&#45;5 -->
<g id="edge25" class="edge"><title>4&#45;&#45;5</title>
<path fill="none" stroke="black" d="M344.9,-362.1C364.555,-388.692 403.571,-441.478 423.175,-468.002"/>
<text text-anchor="middle" x="384" y="-408.8" font-family="Times New Roman,serif" font-size="14.00">31</text>
</g>
<!-- 4&#45;&#45;6 -->
<g id="edge26" class="edge"><title>4&#45;&#45;6</title>
<path fill="none" stroke="black" d="M339.291,-363.363C361.849,-417.084 429,-577 429,-577 429,-577 492.09,-630.427 523.141,-656.723"/>
<text text-anchor="middle" x="436" y="-580.8" font-family="Times New Roman,serif" font-size="14.00">32</text>
</g>
<!-- 4&#45;&#45;7 -->
<g id="edge27" class="edge"><title>4&#45;&#45;7</title>
<path fill="none" stroke="black" d="M358.916,-344.184C405.213,-341.059 495,-335 495,-335 495,-335 575.785,-353.976 618.386,-363.983"/>
<text text-anchor="middle" x="488" y="-323.8" font-family="Times New Roman,serif" font-size="14.00">33</text>
</g>
<!-- 4&#45;&#45;8 -->
<g id="edge28" class="edge"><title>4&#45;&#45;8</title>
<path fill="none" stroke="magenta" stroke-width="4" d="M356.245,-354.232C412.473,-373.323 547,-419 547,-419 547,-419 686.802,-563.67 733.22,-611.705"/>
<text text-anchor="middle" x="540" y="-407.8" font-family="Times New Roman,serif" font-size="14.00">34</text>
</g>
<!-- 4&#45;&#45;9 -->
<g id="edge29" class="edge"><title>4&#45;&#45;9</title>
<path fill="none" stroke="magenta" stroke-width="4" d="M356.64,-338.34C422.738,-317.793 599,-263 599,-263 599,-263 777.45,-407.594 834.61,-453.91"/>
<text text-anchor="middle" x="592" y="-251.8" font-family="Times New Roman,serif" font-size="14.00">35</text>
</g>
<!-- 4&#45;&#45;10 -->
<g id="edge30" class="edge"><title>4&#45;&#45;10</title>
<path fill="none" stroke="black" d="M355.457,-336.808C429.126,-307.941 651,-221 651,-221 651,-221 854.288,-236.33 928.933,-241.959"/>
<text text-anchor="middle" x="644" y="-209.8" font-family="Times New Roman,serif" font-size="14.00">36</text>
</g>
<!-- 5&#45;&#45;6 -->
<g id="edge31" class="edge"><title>5&#45;&#45;6</title>
<path fill="none" stroke="magenta" stroke-width="4" d="M446.232,-500.925C465.651,-536.527 510.526,-618.797 529.863,-654.248"/>
<text text-anchor="middle" x="488" y="-595.8" font-family="Times New Roman,serif" font-size="14.00">41</text>
</g>
<!-- 5&#45;&#45;7 -->
<g id="edge32" class="edge"><title>5&#45;&#45;7</title>
<path fill="none" stroke="magenta" stroke-width="4" d="M462.762,-486.483C491.474,-489.147 533,-493 533,-493 533,-493 600.073,-418.676 629.942,-385.578"/>
<text text-anchor="middle" x="540" y="-496.8" font-family="Times New Roman,serif" font-size="14.00">42</text>
</g>
<!-- 5&#45;&#45;8 -->
<g id="edge33" class="edge"><title>5&#45;&#45;8</title>
<path fill="none" stroke="black" d="M454.57,-497.211C494.512,-525.626 585,-590 585,-590 585,-590 676.211,-610.704 722.172,-621.137"/>
<text text-anchor="middle" x="592" y="-593.8" font-family="Times New Roman,serif" font-size="14.00">43</text>
</g>
<!-- 5&#45;&#45;9 -->
<g id="edge34" class="edge"><title>5&#45;&#45;9</title>
<path fill="none" stroke="black" d="M463.108,-483.191C517.972,-481.553 637,-478 637,-478 637,-478 766.917,-471.957 824.77,-469.267"/>
<text text-anchor="middle" x="644" y="-481.8" font-family="Times New Roman,serif" font-size="14.00">44</text>
</g>
<!-- 5&#45;&#45;10 -->
<g id="edge35" class="edge"><title>5&#45;&#45;10</title>
<path fill="none" stroke="black" d="M455.202,-471.127C516.423,-430.084 703,-305 703,-305 703,-305 866.029,-265.693 930.349,-250.185"/>
<text text-anchor="middle" x="696" y="-293.8" font-family="Times New Roman,serif" font-size="14.00">45</text>
</g>
<!-- 6&#45;&#45;7 -->
<g id="edge36" class="edge"><title>6&#45;&#45;7</title>
<path fill="none" stroke="black" d="M546.925,-653.516C564.953,-600.317 619.009,-440.796 637.059,-387.532"/>
<text text-anchor="middle" x="592" y="-556.8" font-family="Times New Roman,serif" font-size="14.00">51</text>
</g>
<!-- 6&#45;&#45;8 -->
<g id="edge37" class="edge"><title>6&#45;&#45;8</title>
<path fill="none" stroke="black" d="M565.994,-676.36C594.727,-682.284 637,-691 637,-691 637,-691 695.282,-657.396 727.382,-638.888"/>
<text text-anchor="middle" x="644" y="-694.8" font-family="Times New Roman,serif" font-size="14.00">52</text>
</g>
<!-- 6&#45;&#45;9 -->
<g id="edge38" class="edge"><title>6&#45;&#45;9</title>
<path fill="none" stroke="black" d="M558.57,-657.665C598.512,-628.981 689,-564 689,-564 689,-564 787.99,-505.699 831.686,-479.964"/>
<text text-anchor="middle" x="696" y="-567.8" font-family="Times New Roman,serif" font-size="14.00">53</text>
</g>
<!-- 6&#45;&#45;10 -->
<g id="edge39" class="edge"><title>6&#45;&#45;10</title>
<path fill="none" stroke="black" d="M555.438,-686.131C602.505,-732.261 741,-868 741,-868 741,-868 914.923,-363.218 949.912,-261.67"/>
<text text-anchor="middle" x="748" y="-871.8" font-family="Times New Roman,serif" font-size="14.00">54</text>
</g>
<!-- 7&#45;&#45;8 -->
<g id="edge40" class="edge"><title>7&#45;&#45;8</title>
<path fill="none" stroke="black" d="M651.851,-387.262C670.388,-433.967 721.386,-562.464 740.045,-609.475"/>
<text text-anchor="middle" x="696" y="-516.8" font-family="Times New Roman,serif" font-size="14.00">61</text>
</g>
<!-- 7&#45;&#45;9 -->
<g id="edge41" class="edge"><title>7&#45;&#45;9</title>
<path fill="none" stroke="black" d="M666.498,-380.437C695.152,-393.73 741,-415 741,-415 741,-415 797.412,-441.935 829.804,-457.402"/>
<text text-anchor="middle" x="748" y="-418.8" font-family="Times New Roman,serif" font-size="14.00">62</text>
</g>
<!-- 7&#45;&#45;10 -->
<g id="edge42" class="edge"><title>7&#45;&#45;10</title>
<path fill="none" stroke="black" d="M668.271,-361.855C710.492,-347.687 793,-320 793,-320 793,-320 889.036,-275.223 933.677,-254.408"/>
<text text-anchor="middle" x="800" y="-323.8" font-family="Times New Roman,serif" font-size="14.00">63</text>
</g>
<!-- 8&#45;&#45;9 -->
<g id="edge43" class="edge"><title>8&#45;&#45;9</title>
<path fill="none" stroke="black" d="M759.532,-610.583C779.077,-580.115 820.755,-515.146 840.373,-484.566"/>
<text text-anchor="middle" x="800" y="-589.8" font-family="Times New Roman,serif" font-size="14.00">71</text>
</g>
<!-- 8&#45;&#45;10 -->
<g id="edge44" class="edge"><title>8&#45;&#45;10</title>
<path fill="none" stroke="black" d="M775.02,-627C803.721,-627 845,-627 845,-627 845,-627 929.039,-337.029 950.869,-261.705"/>
<text text-anchor="middle" x="852" y="-630.8" font-family="Times New Roman,serif" font-size="14.00">72</text>
</g>
<!-- 9&#45;&#45;10 -->
<g id="edge45" class="edge"><title>9&#45;&#45;10</title>
<path fill="none" stroke="black" d="M860.834,-450.795C879.821,-409.099 928.125,-303.019 947.139,-261.264"/>
<text text-anchor="middle" x="904" y="-373.8" font-family="Times New Roman,serif" font-size="14.00">81</text>
</g>
</g>
</svg>
